<mxfile host="app.diagrams.net" modified="2022-07-07T13:12:18.846Z" agent="5.0 (Windows NT 10.0; Win64; x64) AppleWebKit/537.36 (KHTML, like Gecko) Chrome/102.0.0.0 Safari/537.36" etag="-U32U9lRhuIEdUVmfr9S" version="18.0.3" type="github">
  <diagram id="1ASEEsOanhs8rrN_ppPi" name="Page-1">
    <mxGraphModel dx="782" dy="468" grid="1" gridSize="10" guides="1" tooltips="1" connect="1" arrows="1" fold="1" page="1" pageScale="1" pageWidth="850" pageHeight="1100" math="0" shadow="0">
      <root>
        <mxCell id="0" />
        <mxCell id="1" parent="0" />
        <mxCell id="zH3nvvAlPRFwcYCAYHBG-1" value="Operator" style="shape=umlActor;verticalLabelPosition=bottom;verticalAlign=top;html=1;outlineConnect=0;" vertex="1" parent="1">
          <mxGeometry x="90" y="160" width="30" height="60" as="geometry" />
        </mxCell>
        <mxCell id="zH3nvvAlPRFwcYCAYHBG-36" style="edgeStyle=orthogonalEdgeStyle;rounded=0;orthogonalLoop=1;jettySize=auto;html=1;exitX=0;exitY=0.75;exitDx=0;exitDy=0;fontSize=14;entryX=0;entryY=0.5;entryDx=0;entryDy=0;entryPerimeter=0;" edge="1" parent="1" source="zH3nvvAlPRFwcYCAYHBG-2" target="zH3nvvAlPRFwcYCAYHBG-7">
          <mxGeometry relative="1" as="geometry">
            <mxPoint x="140" y="440" as="targetPoint" />
          </mxGeometry>
        </mxCell>
        <mxCell id="zH3nvvAlPRFwcYCAYHBG-2" value="&lt;b&gt;&lt;font style=&quot;font-size: 14px;&quot;&gt;Registration Client&lt;/font&gt;&lt;/b&gt;" style="rounded=0;whiteSpace=wrap;html=1;" vertex="1" parent="1">
          <mxGeometry x="200" y="160" width="120" height="60" as="geometry" />
        </mxCell>
        <mxCell id="zH3nvvAlPRFwcYCAYHBG-3" value="&lt;b&gt;&lt;font style=&quot;font-size: 14px;&quot;&gt;Registration Processor&lt;/font&gt;&lt;/b&gt;" style="rounded=0;whiteSpace=wrap;html=1;" vertex="1" parent="1">
          <mxGeometry x="400" y="160" width="120" height="60" as="geometry" />
        </mxCell>
        <mxCell id="zH3nvvAlPRFwcYCAYHBG-4" value="&lt;font style=&quot;font-size: 16px;&quot;&gt;&lt;b&gt;Bio SDK&lt;/b&gt;&lt;/font&gt;" style="rounded=0;whiteSpace=wrap;html=1;" vertex="1" parent="1">
          <mxGeometry x="200" y="300" width="120" height="60" as="geometry" />
        </mxCell>
        <mxCell id="zH3nvvAlPRFwcYCAYHBG-5" value="&lt;b&gt;&lt;font style=&quot;font-size: 13px;&quot;&gt;ID Authentication&lt;/font&gt;&lt;/b&gt;" style="rounded=0;whiteSpace=wrap;html=1;" vertex="1" parent="1">
          <mxGeometry x="400" y="300" width="120" height="60" as="geometry" />
        </mxCell>
        <mxCell id="zH3nvvAlPRFwcYCAYHBG-6" value="&lt;font style=&quot;font-size: 14px;&quot;&gt;&lt;b&gt;Registration&amp;nbsp;&lt;/b&gt;&lt;/font&gt;" style="rounded=0;whiteSpace=wrap;html=1;" vertex="1" parent="1">
          <mxGeometry x="360" y="410" width="130" height="60" as="geometry" />
        </mxCell>
        <mxCell id="zH3nvvAlPRFwcYCAYHBG-7" value="&lt;font style=&quot;font-size: 13px;&quot;&gt;&lt;b&gt;Derby DB&lt;/b&gt;&lt;/font&gt;" style="shape=cylinder3;whiteSpace=wrap;html=1;boundedLbl=1;backgroundOutline=1;size=15;" vertex="1" parent="1">
          <mxGeometry x="160" y="400" width="60" height="80" as="geometry" />
        </mxCell>
        <mxCell id="zH3nvvAlPRFwcYCAYHBG-10" value="" style="endArrow=classic;html=1;rounded=0;" edge="1" parent="1">
          <mxGeometry width="50" height="50" relative="1" as="geometry">
            <mxPoint x="130" y="184.5" as="sourcePoint" />
            <mxPoint x="200" y="184.5" as="targetPoint" />
          </mxGeometry>
        </mxCell>
        <mxCell id="zH3nvvAlPRFwcYCAYHBG-11" value="" style="endArrow=classic;html=1;rounded=0;fontSize=14;exitX=1;exitY=0.5;exitDx=0;exitDy=0;" edge="1" parent="1" source="zH3nvvAlPRFwcYCAYHBG-2">
          <mxGeometry width="50" height="50" relative="1" as="geometry">
            <mxPoint x="380" y="240" as="sourcePoint" />
            <mxPoint x="400" y="180" as="targetPoint" />
            <Array as="points">
              <mxPoint x="320" y="180" />
            </Array>
          </mxGeometry>
        </mxCell>
        <mxCell id="zH3nvvAlPRFwcYCAYHBG-12" value="" style="endArrow=classic;html=1;rounded=0;fontSize=14;entryX=1;entryY=0.75;entryDx=0;entryDy=0;exitX=0;exitY=0.75;exitDx=0;exitDy=0;" edge="1" parent="1" source="zH3nvvAlPRFwcYCAYHBG-3" target="zH3nvvAlPRFwcYCAYHBG-2">
          <mxGeometry width="50" height="50" relative="1" as="geometry">
            <mxPoint x="380" y="240" as="sourcePoint" />
            <mxPoint x="430" y="190" as="targetPoint" />
          </mxGeometry>
        </mxCell>
        <mxCell id="zH3nvvAlPRFwcYCAYHBG-13" value="" style="endArrow=classic;html=1;rounded=0;fontSize=14;" edge="1" parent="1">
          <mxGeometry width="50" height="50" relative="1" as="geometry">
            <mxPoint x="440" y="298" as="sourcePoint" />
            <mxPoint x="440" y="220" as="targetPoint" />
          </mxGeometry>
        </mxCell>
        <mxCell id="zH3nvvAlPRFwcYCAYHBG-14" value="" style="endArrow=classic;html=1;rounded=0;fontSize=14;entryX=0.661;entryY=-0.033;entryDx=0;entryDy=0;entryPerimeter=0;" edge="1" parent="1" target="zH3nvvAlPRFwcYCAYHBG-5">
          <mxGeometry width="50" height="50" relative="1" as="geometry">
            <mxPoint x="480" y="220" as="sourcePoint" />
            <mxPoint x="480" y="290" as="targetPoint" />
          </mxGeometry>
        </mxCell>
        <mxCell id="zH3nvvAlPRFwcYCAYHBG-15" value="" style="endArrow=classic;html=1;rounded=0;fontSize=14;exitX=0.661;exitY=1;exitDx=0;exitDy=0;exitPerimeter=0;" edge="1" parent="1" source="zH3nvvAlPRFwcYCAYHBG-2">
          <mxGeometry width="50" height="50" relative="1" as="geometry">
            <mxPoint x="237" y="220" as="sourcePoint" />
            <mxPoint x="279" y="300" as="targetPoint" />
          </mxGeometry>
        </mxCell>
        <mxCell id="zH3nvvAlPRFwcYCAYHBG-16" value="" style="endArrow=classic;html=1;rounded=0;fontSize=14;entryX=0.333;entryY=1;entryDx=0;entryDy=0;entryPerimeter=0;exitX=0.322;exitY=-0.011;exitDx=0;exitDy=0;exitPerimeter=0;" edge="1" parent="1" source="zH3nvvAlPRFwcYCAYHBG-4" target="zH3nvvAlPRFwcYCAYHBG-2">
          <mxGeometry width="50" height="50" relative="1" as="geometry">
            <mxPoint x="240" y="290" as="sourcePoint" />
            <mxPoint x="430" y="390" as="targetPoint" />
          </mxGeometry>
        </mxCell>
        <mxCell id="zH3nvvAlPRFwcYCAYHBG-17" value="1" style="ellipse;whiteSpace=wrap;html=1;aspect=fixed;fontSize=14;" vertex="1" parent="1">
          <mxGeometry x="150" y="150" width="30" height="30" as="geometry" />
        </mxCell>
        <mxCell id="zH3nvvAlPRFwcYCAYHBG-18" value="2" style="ellipse;whiteSpace=wrap;html=1;aspect=fixed;fontSize=14;" vertex="1" parent="1">
          <mxGeometry x="350" y="140" width="30" height="30" as="geometry" />
        </mxCell>
        <mxCell id="zH3nvvAlPRFwcYCAYHBG-19" value="5" style="ellipse;whiteSpace=wrap;html=1;aspect=fixed;fontSize=14;" vertex="1" parent="1">
          <mxGeometry x="350" y="210" width="30" height="30" as="geometry" />
        </mxCell>
        <mxCell id="zH3nvvAlPRFwcYCAYHBG-21" value="9" style="ellipse;whiteSpace=wrap;html=1;aspect=fixed;fontSize=14;" vertex="1" parent="1">
          <mxGeometry x="280" y="400" width="30" height="30" as="geometry" />
        </mxCell>
        <mxCell id="zH3nvvAlPRFwcYCAYHBG-22" value="8" style="ellipse;whiteSpace=wrap;html=1;aspect=fixed;fontSize=14;" vertex="1" parent="1">
          <mxGeometry x="100" y="330" width="30" height="30" as="geometry" />
        </mxCell>
        <mxCell id="zH3nvvAlPRFwcYCAYHBG-23" value="7" style="ellipse;whiteSpace=wrap;html=1;aspect=fixed;fontSize=14;" vertex="1" parent="1">
          <mxGeometry x="200" y="250" width="30" height="30" as="geometry" />
        </mxCell>
        <mxCell id="zH3nvvAlPRFwcYCAYHBG-24" value="6" style="ellipse;whiteSpace=wrap;html=1;aspect=fixed;fontSize=14;" vertex="1" parent="1">
          <mxGeometry x="290" y="250" width="30" height="30" as="geometry" />
        </mxCell>
        <mxCell id="zH3nvvAlPRFwcYCAYHBG-25" value="4" style="ellipse;whiteSpace=wrap;html=1;aspect=fixed;fontSize=14;" vertex="1" parent="1">
          <mxGeometry x="400" y="250" width="30" height="30" as="geometry" />
        </mxCell>
        <mxCell id="zH3nvvAlPRFwcYCAYHBG-26" value="3" style="ellipse;whiteSpace=wrap;html=1;aspect=fixed;fontSize=14;" vertex="1" parent="1">
          <mxGeometry x="490" y="250" width="30" height="30" as="geometry" />
        </mxCell>
        <mxCell id="zH3nvvAlPRFwcYCAYHBG-37" value="" style="endArrow=classic;html=1;rounded=0;fontSize=14;entryX=0;entryY=0.5;entryDx=0;entryDy=0;exitX=1;exitY=0.5;exitDx=0;exitDy=0;exitPerimeter=0;" edge="1" parent="1" source="zH3nvvAlPRFwcYCAYHBG-7" target="zH3nvvAlPRFwcYCAYHBG-6">
          <mxGeometry width="50" height="50" relative="1" as="geometry">
            <mxPoint x="380" y="340" as="sourcePoint" />
            <mxPoint x="430" y="290" as="targetPoint" />
          </mxGeometry>
        </mxCell>
      </root>
    </mxGraphModel>
  </diagram>
</mxfile>
